<svg id="visual" viewBox="0 0 900 600" width="900" height="600" xmlns="http://www.w3.org/2000/svg" xmlns:xlink="http://www.w3.org/1999/xlink" version="1.1"><rect x="0" y="0" width="900" height="600" fill="#F1F7ED"></rect><defs><linearGradient id="grad1_0" x1="33.3%" y1="0%" x2="100%" y2="100%"><stop offset="20%" stop-color="#f1f7ed" stop-opacity="1"></stop><stop offset="80%" stop-color="#f1f7ed" stop-opacity="1"></stop></linearGradient></defs><defs><linearGradient id="grad2_0" x1="0%" y1="0%" x2="66.7%" y2="100%"><stop offset="20%" stop-color="#f1f7ed" stop-opacity="1"></stop><stop offset="80%" stop-color="#f1f7ed" stop-opacity="1"></stop></linearGradient></defs><g transform="translate(900, 0)"><path d="M0 459.7C-49.2 417.2 -98.4 374.7 -143.5 346.5C-188.6 318.2 -229.6 304.2 -280.7 280.7C-331.9 257.2 -393.2 224.3 -424.7 175.9C-456.2 127.6 -458 63.8 -459.7 0L0 0Z" fill="#C16200"></path></g><g transform="translate(0, 600)"><path d="M0 -459.7C60 -454.1 120.1 -448.4 175.9 -424.7C231.8 -401 283.4 -359.3 309 -309C334.6 -258.7 334 -199.9 354.8 -147C375.5 -94 417.6 -47 459.7 0L0 0Z" fill="#C16200"></path></g></svg>