<svg id="visual" viewBox="0 0 1100 800" width="1100" height="800" xmlns="http://www.w3.org/2000/svg" xmlns:xlink="http://www.w3.org/1999/xlink" version="1.1"><rect x="0" y="0" width="1100" height="800" fill="#628395"></rect><defs><linearGradient id="grad1_0" x1="27.3%" y1="100%" x2="100%" y2="0%"><stop offset="22.5%" stop-color="#628395" stop-opacity="1"></stop><stop offset="77.5%" stop-color="#628395" stop-opacity="1"></stop></linearGradient></defs><defs><linearGradient id="grad2_0" x1="0%" y1="100%" x2="72.7%" y2="0%"><stop offset="22.5%" stop-color="#628395" stop-opacity="1"></stop><stop offset="77.5%" stop-color="#628395" stop-opacity="1"></stop></linearGradient></defs><g transform="translate(1100, 800)"><path d="M-442 0C-396.7 -35.4 -351.4 -70.8 -329.1 -106.9C-306.8 -143 -307.5 -179.7 -296.1 -215.1C-284.7 -250.5 -261.1 -284.7 -233.9 -322C-206.8 -359.3 -176.2 -399.9 -136.6 -420.4C-97 -441 -48.5 -441.5 0 -442L0 0Z" fill="#051923"></path></g><g transform="translate(0, 0)"><path d="M442 0C414.7 36.7 387.3 73.3 381.4 123.9C375.5 174.5 391.1 239 357.6 259.8C324.2 280.6 241.7 257.7 197.5 271.8C153.3 286 147.4 337.3 120.8 371.9C94.3 406.4 47.1 424.2 0 442L0 0Z" fill="#051923"></path></g></svg>