<svg id="visual" viewBox="0 0 900 600" width="900" height="600" xmlns="http://www.w3.org/2000/svg" xmlns:xlink="http://www.w3.org/1999/xlink" version="1.1"><rect x="0" y="0" width="900" height="600" fill="#628395"></rect><defs><linearGradient id="grad1_0" x1="33.3%" y1="0%" x2="100%" y2="100%"><stop offset="20%" stop-color="#f1f7ed" stop-opacity="1"></stop><stop offset="80%" stop-color="#f1f7ed" stop-opacity="1"></stop></linearGradient></defs><defs><linearGradient id="grad1_1" x1="33.3%" y1="0%" x2="100%" y2="100%"><stop offset="20%" stop-color="#f1f7ed" stop-opacity="1"></stop><stop offset="80%" stop-color="#bcd1c9" stop-opacity="1"></stop></linearGradient></defs><defs><linearGradient id="grad1_2" x1="33.3%" y1="0%" x2="100%" y2="100%"><stop offset="20%" stop-color="#89aaad" stop-opacity="1"></stop><stop offset="80%" stop-color="#bcd1c9" stop-opacity="1"></stop></linearGradient></defs><defs><linearGradient id="grad1_3" x1="33.3%" y1="0%" x2="100%" y2="100%"><stop offset="20%" stop-color="#89aaad" stop-opacity="1"></stop><stop offset="80%" stop-color="#628395" stop-opacity="1"></stop></linearGradient></defs><defs><linearGradient id="grad2_0" x1="0%" y1="0%" x2="66.7%" y2="100%"><stop offset="20%" stop-color="#f1f7ed" stop-opacity="1"></stop><stop offset="80%" stop-color="#f1f7ed" stop-opacity="1"></stop></linearGradient></defs><defs><linearGradient id="grad2_1" x1="0%" y1="0%" x2="66.7%" y2="100%"><stop offset="20%" stop-color="#bcd1c9" stop-opacity="1"></stop><stop offset="80%" stop-color="#f1f7ed" stop-opacity="1"></stop></linearGradient></defs><defs><linearGradient id="grad2_2" x1="0%" y1="0%" x2="66.7%" y2="100%"><stop offset="20%" stop-color="#bcd1c9" stop-opacity="1"></stop><stop offset="80%" stop-color="#89aaad" stop-opacity="1"></stop></linearGradient></defs><defs><linearGradient id="grad2_3" x1="0%" y1="0%" x2="66.7%" y2="100%"><stop offset="20%" stop-color="#628395" stop-opacity="1"></stop><stop offset="80%" stop-color="#89aaad" stop-opacity="1"></stop></linearGradient></defs><g transform="translate(900, 0)"><path d="M0 432.7C-19.6 407.5 -39.3 382.2 -59.3 374.3C-79.3 366.4 -99.7 375.8 -124.5 383.3C-149.3 390.7 -178.5 396.2 -193.9 380.5C-209.2 364.7 -210.7 327.8 -225.7 310.7C-240.8 293.5 -269.4 296.1 -285 285C-300.6 273.8 -303.2 249 -322.8 234.5C-342.4 220.1 -379 216 -385.5 196.4C-392.1 176.9 -368.6 141.9 -359.5 116.8C-350.4 91.7 -355.8 76.5 -370.4 58.7C-385 40.8 -408.8 20.4 -432.7 0L0 0Z" fill="#7397a1"></path><path d="M0 324.5C-14.7 305.6 -29.4 286.7 -44.5 280.8C-59.5 274.8 -74.8 281.9 -93.4 287.5C-112 293 -133.9 297.1 -145.4 285.3C-156.9 273.6 -158 245.9 -169.3 233C-180.6 220.1 -202 222.1 -213.7 213.7C-225.4 205.4 -227.4 186.7 -242.1 175.9C-256.8 165 -284.2 162 -289.1 147.3C-294 132.7 -276.4 106.4 -269.6 87.6C-262.8 68.8 -266.8 57.4 -277.8 44C-288.7 30.6 -306.6 15.3 -324.5 0L0 0Z" fill="#a2beba"></path><path d="M0 216.3C-9.8 203.7 -19.6 191.1 -29.6 187.2C-39.7 183.2 -49.9 187.9 -62.3 191.6C-74.7 195.4 -89.3 198.1 -96.9 190.2C-104.6 182.4 -105.3 163.9 -112.9 155.3C-120.4 146.8 -134.7 148 -142.5 142.5C-150.3 136.9 -151.6 124.5 -161.4 117.3C-171.2 110 -189.5 108 -192.8 98.2C-196 88.4 -184.3 71 -179.7 58.4C-175.2 45.9 -177.9 38.2 -185.2 29.3C-192.5 20.4 -204.4 10.2 -216.3 0L0 0Z" fill="#d7e4d9"></path><path d="M0 108.2C-4.9 101.9 -9.8 95.6 -14.8 93.6C-19.8 91.6 -24.9 94 -31.1 95.8C-37.3 97.7 -44.6 99 -48.5 95.1C-52.3 91.2 -52.7 82 -56.4 77.7C-60.2 73.4 -67.3 74 -71.2 71.2C-75.1 68.5 -75.8 62.2 -80.7 58.6C-85.6 55 -94.7 54 -96.4 49.1C-98 44.2 -92.1 35.5 -89.9 29.2C-87.6 22.9 -88.9 19.1 -92.6 14.7C-96.2 10.2 -102.2 5.1 -108.2 0L0 0Z" fill="#f1f7ed"></path></g><g transform="translate(0, 600)"><path d="M0 -432.7C20.5 -418 41 -403.3 63.2 -399C85.4 -394.7 109.4 -400.8 126.7 -389.9C144 -379 154.6 -351.2 173 -339.5C191.4 -327.8 217.6 -332.3 235.1 -323.6C252.6 -314.9 261.5 -292.9 277.9 -277.9C294.3 -262.9 318.2 -254.8 325.2 -236.3C332.2 -217.8 322.3 -188.9 336.8 -171.6C351.3 -154.3 390.1 -148.6 409 -132.9C427.8 -117.2 426.7 -91.5 427.3 -67.7C428 -43.9 430.3 -21.9 432.7 0L0 0Z" fill="#7397a1"></path><path d="M0 -324.5C15.4 -313.5 30.7 -302.5 47.4 -299.3C64.1 -296.1 82.1 -300.6 95 -292.4C108 -284.3 115.9 -263.4 129.7 -254.6C143.5 -245.8 163.2 -249.2 176.3 -242.7C189.5 -236.2 196.1 -219.7 208.4 -208.4C220.7 -197.1 238.7 -191.1 243.9 -177.2C249.2 -163.4 241.8 -141.7 252.6 -128.7C263.4 -115.7 292.6 -111.4 306.7 -99.7C320.9 -87.9 320 -68.6 320.5 -50.8C321 -32.9 322.7 -16.5 324.5 0L0 0Z" fill="#a2beba"></path><path d="M0 -216.3C10.2 -209 20.5 -201.7 31.6 -199.5C42.7 -197.4 54.7 -200.4 63.3 -195C72 -189.5 77.3 -175.6 86.5 -169.7C95.7 -163.9 108.8 -166.2 117.6 -161.8C126.3 -157.4 130.8 -146.5 138.9 -138.9C147.1 -131.4 159.1 -127.4 162.6 -118.1C166.1 -108.9 161.2 -94.5 168.4 -85.8C175.6 -77.2 195 -74.3 204.5 -66.4C213.9 -58.6 213.4 -45.7 213.7 -33.8C214 -21.9 215.2 -11 216.3 0L0 0Z" fill="#d7e4d9"></path><path d="M0 -108.2C5.1 -104.5 10.2 -100.8 15.8 -99.8C21.4 -98.7 27.4 -100.2 31.7 -97.5C36 -94.8 38.6 -87.8 43.2 -84.9C47.8 -81.9 54.4 -83.1 58.8 -80.9C63.2 -78.7 65.4 -73.2 69.5 -69.5C73.6 -65.7 79.6 -63.7 81.3 -59.1C83.1 -54.5 80.6 -47.2 84.2 -42.9C87.8 -38.6 97.5 -37.1 102.2 -33.2C107 -29.3 106.7 -22.9 106.8 -16.9C107 -11 107.6 -5.5 108.2 0L0 0Z" fill="#f1f7ed"></path></g></svg>