<svg id="visual" viewBox="0 0 1920 1080" width="1920" height="1080" xmlns="http://www.w3.org/2000/svg" xmlns:xlink="http://www.w3.org/1999/xlink" version="1.1"><rect x="0" y="0" width="1920" height="1080" fill="#f1f7ed"></rect><defs><linearGradient id="grad1_0" x1="43.8%" y1="100%" x2="100%" y2="0%"><stop offset="14.444444444444446%" stop-color="#628395" stop-opacity="1"></stop><stop offset="85.55555555555554%" stop-color="#628395" stop-opacity="1"></stop></linearGradient></defs><defs><linearGradient id="grad1_1" x1="43.8%" y1="100%" x2="100%" y2="0%"><stop offset="14.444444444444446%" stop-color="#628395" stop-opacity="1"></stop><stop offset="85.55555555555554%" stop-color="#f1f7ed" stop-opacity="1"></stop></linearGradient></defs><defs><linearGradient id="grad2_0" x1="0%" y1="100%" x2="56.3%" y2="0%"><stop offset="14.444444444444446%" stop-color="#628395" stop-opacity="1"></stop><stop offset="85.55555555555554%" stop-color="#628395" stop-opacity="1"></stop></linearGradient></defs><defs><linearGradient id="grad2_1" x1="0%" y1="100%" x2="56.3%" y2="0%"><stop offset="14.444444444444446%" stop-color="#f1f7ed" stop-opacity="1"></stop><stop offset="85.55555555555554%" stop-color="#628395" stop-opacity="1"></stop></linearGradient></defs><g transform="translate(1920, 1080)"><path d="M-864 0C-861 -93.5 -858 -186.9 -821.7 -267C-785.4 -347 -715.9 -413.7 -652.1 -473.8C-588.3 -533.8 -530.2 -587.4 -467.3 -643.2C-404.4 -698.9 -336.7 -757 -258 -794.1C-179.3 -831.3 -89.7 -847.7 0 -864L0 0Z" fill="#a2beba"></path><path d="M-432 0C-430.5 -46.7 -429 -93.5 -410.9 -133.5C-392.7 -173.5 -357.9 -206.8 -326 -236.9C-294.1 -266.9 -265.1 -293.7 -233.6 -321.6C-202.2 -349.5 -168.4 -378.5 -129 -397.1C-89.7 -415.7 -44.8 -423.8 0 -432L0 0Z" fill="#628395"></path></g><g transform="translate(0, 0)"><path d="M864 0C814.2 77.9 764.5 155.8 743.7 241.7C723 327.5 731.3 421.4 699 507.8C666.7 594.3 593.7 673.4 506.1 696.6C418.4 719.8 316.1 687.1 229.3 705.7C142.5 724.3 71.2 794.1 0 864L0 0Z" fill="#a2beba"></path><path d="M432 0C407.1 38.9 382.2 77.9 371.9 120.8C361.5 163.8 365.7 210.7 349.5 253.9C333.3 297.2 296.9 336.7 253 348.3C209.2 359.9 158 343.5 114.6 352.8C71.2 362.1 35.6 397.1 0 432L0 0Z" fill="#628395"></path></g></svg>