<svg id="visual" viewBox="0 0 1920 1080" width="1920" height="1080" xmlns="http://www.w3.org/2000/svg" xmlns:xlink="http://www.w3.org/1999/xlink" version="1.1"><rect x="0" y="0" width="1920" height="1080" fill="#628395"></rect><defs><linearGradient id="grad1_0" x1="43.8%" y1="100%" x2="100%" y2="0%"><stop offset="14.444444444444446%" stop-color="#628395" stop-opacity="1"></stop><stop offset="85.55555555555554%" stop-color="#628395" stop-opacity="1"></stop></linearGradient></defs><defs><linearGradient id="grad2_0" x1="0%" y1="100%" x2="56.3%" y2="0%"><stop offset="14.444444444444446%" stop-color="#628395" stop-opacity="1"></stop><stop offset="85.55555555555554%" stop-color="#628395" stop-opacity="1"></stop></linearGradient></defs><g transform="translate(1920, 1080)"><path d="M-702 0C-668.3 -64.1 -634.7 -128.3 -614.4 -199.6C-594.1 -271 -587.2 -349.5 -543.7 -395C-500.1 -440.5 -419.9 -453 -363.3 -500C-306.6 -546.9 -273.5 -628.2 -216.9 -667.6C-160.3 -707 -80.2 -704.5 0 -702L0 0Z" fill="#051923"></path></g><g transform="translate(0, 0)"><path d="M702 0C678.2 66.9 654.4 133.8 638.2 207.4C622 280.9 613.4 361.1 567.9 412.6C522.5 464.1 440.3 486.9 373.8 514.5C307.4 542.2 256.8 574.7 197.2 606.8C137.5 638.8 68.7 670.4 0 702L0 0Z" fill="#051923"></path></g></svg>