<svg id="visual" viewBox="0 0 900 600" width="900" height="600" xmlns="http://www.w3.org/2000/svg" xmlns:xlink="http://www.w3.org/1999/xlink" version="1.1"><rect x="0" y="0" width="900" height="600" fill="#628395"></rect><defs><linearGradient id="grad1_0" x1="33.3%" y1="100%" x2="100%" y2="0%"><stop offset="20%" stop-color="#628395" stop-opacity="1"></stop><stop offset="80%" stop-color="#628395" stop-opacity="1"></stop></linearGradient></defs><defs><linearGradient id="grad2_0" x1="0%" y1="100%" x2="66.7%" y2="0%"><stop offset="20%" stop-color="#628395" stop-opacity="1"></stop><stop offset="80%" stop-color="#628395" stop-opacity="1"></stop></linearGradient></defs><g transform="translate(900, 600)"><path d="M-378.6 0C-353 -17.4 -327.4 -34.8 -327 -57.7C-326.5 -80.5 -351.2 -108.7 -344.9 -125.5C-338.5 -142.4 -301.1 -147.9 -290.1 -167.5C-279.1 -187.1 -294.6 -220.7 -290 -243.3C-285.5 -266 -260.9 -277.8 -235.9 -281.1C-210.9 -284.5 -185.4 -279.5 -168 -291C-150.6 -302.4 -141.1 -330.4 -124.5 -342C-107.9 -353.7 -84.1 -349.2 -62.2 -352.6C-40.2 -355.9 -20.1 -367.3 0 -378.6L0 0Z" fill="#051923"></path></g><g transform="translate(0, 0)"><path d="M378.6 0C355.3 18.6 332 37.2 327 57.7C322 78.1 335.3 100.4 340.2 123.8C345.1 147.2 341.5 171.8 327.9 189.3C314.2 206.8 290.3 217.1 267.3 224.3C244.4 231.6 222.3 235.8 207 246.7C191.7 257.6 183.2 275.2 172.5 298.8C161.8 322.3 148.8 351.9 128.3 352.4C107.8 352.9 79.8 324.5 57.1 324C34.5 323.5 17.3 351.1 0 378.6L0 0Z" fill="#051923"></path></g></svg>