<svg id="visual" viewBox="0 0 1600 900" width="1600" height="900" xmlns="http://www.w3.org/2000/svg" xmlns:xlink="http://www.w3.org/1999/xlink" version="1.1"><rect x="0" y="0" width="1600" height="900" fill="#051923"></rect><path d="M0 175L38.2 182.5C76.3 190 152.7 205 228.8 226.2C305 247.3 381 274.7 457.2 273.5C533.3 272.3 609.7 242.7 685.8 228.3C762 214 838 215 914.2 202.8C990.3 190.7 1066.7 165.3 1142.8 168.5C1219 171.7 1295 203.3 1371.2 224.2C1447.3 245 1523.7 255 1561.8 260L1600 265L1600 0L1561.8 0C1523.7 0 1447.3 0 1371.2 0C1295 0 1219 0 1142.8 0C1066.7 0 990.3 0 914.2 0C838 0 762 0 685.8 0C609.7 0 533.3 0 457.2 0C381 0 305 0 228.8 0C152.7 0 76.3 0 38.2 0L0 0Z" fill="#c16200" stroke-linecap="round" stroke-linejoin="miter"></path></svg>