<svg id="visual" viewBox="0 0 1100 700" width="1100" height="700" xmlns="http://www.w3.org/2000/svg" xmlns:xlink="http://www.w3.org/1999/xlink" version="1.1"><rect x="0" y="0" width="1100" height="700" fill="#f1f7ed"></rect><defs><linearGradient id="grad1_0" x1="36.4%" y1="0%" x2="100%" y2="100%"><stop offset="18.57142857142857%" stop-color="#f1f7ed" stop-opacity="1"></stop><stop offset="81.42857142857143%" stop-color="#f1f7ed" stop-opacity="1"></stop></linearGradient></defs><defs><linearGradient id="grad2_0" x1="0%" y1="0%" x2="63.6%" y2="100%"><stop offset="18.57142857142857%" stop-color="#f1f7ed" stop-opacity="1"></stop><stop offset="81.42857142857143%" stop-color="#f1f7ed" stop-opacity="1"></stop></linearGradient></defs><g transform="translate(1100, 0)"><path d="M0 456.3C-54.1 426.9 -108.3 397.5 -152.3 367.7C-196.3 337.9 -230.3 307.9 -278.6 278.6C-326.9 249.3 -389.6 220.9 -421.6 174.6C-453.6 128.3 -455 64.2 -456.3 0L0 0Z" fill="#c16200"></path></g><g transform="translate(0, 700)"><path d="M0 -456.3C52.8 -433.3 105.6 -410.3 162.3 -391.7C218.9 -373.2 279.5 -359 322.7 -322.7C365.9 -286.3 391.7 -227.8 411.1 -170.3C430.5 -112.8 443.4 -56.4 456.3 0L0 0Z" fill="#c16200"></path></g></svg>