<svg id="visual" viewBox="0 0 1920 1080" width="1920" height="1080" xmlns="http://www.w3.org/2000/svg" xmlns:xlink="http://www.w3.org/1999/xlink" version="1.1"><rect x="0" y="0" width="1920" height="1080" fill="#f1f7ed"></rect><defs><linearGradient id="grad1_0" x1="43.8%" y1="0%" x2="100%" y2="100%"><stop offset="14.444444444444446%" stop-color="#051923" stop-opacity="1"></stop><stop offset="85.55555555555554%" stop-color="#051923" stop-opacity="1"></stop></linearGradient></defs><defs><linearGradient id="grad1_1" x1="43.8%" y1="0%" x2="100%" y2="100%"><stop offset="14.444444444444446%" stop-color="#051923" stop-opacity="1"></stop><stop offset="85.55555555555554%" stop-color="#465c5e" stop-opacity="1"></stop></linearGradient></defs><defs><linearGradient id="grad1_2" x1="43.8%" y1="0%" x2="100%" y2="100%"><stop offset="14.444444444444446%" stop-color="#96a7a1" stop-opacity="1"></stop><stop offset="85.55555555555554%" stop-color="#465c5e" stop-opacity="1"></stop></linearGradient></defs><defs><linearGradient id="grad1_3" x1="43.8%" y1="0%" x2="100%" y2="100%"><stop offset="14.444444444444446%" stop-color="#96a7a1" stop-opacity="1"></stop><stop offset="85.55555555555554%" stop-color="#f1f7ed" stop-opacity="1"></stop></linearGradient></defs><defs><linearGradient id="grad2_0" x1="0%" y1="0%" x2="56.3%" y2="100%"><stop offset="14.444444444444446%" stop-color="#051923" stop-opacity="1"></stop><stop offset="85.55555555555554%" stop-color="#051923" stop-opacity="1"></stop></linearGradient></defs><defs><linearGradient id="grad2_1" x1="0%" y1="0%" x2="56.3%" y2="100%"><stop offset="14.444444444444446%" stop-color="#465c5e" stop-opacity="1"></stop><stop offset="85.55555555555554%" stop-color="#051923" stop-opacity="1"></stop></linearGradient></defs><defs><linearGradient id="grad2_2" x1="0%" y1="0%" x2="56.3%" y2="100%"><stop offset="14.444444444444446%" stop-color="#465c5e" stop-opacity="1"></stop><stop offset="85.55555555555554%" stop-color="#96a7a1" stop-opacity="1"></stop></linearGradient></defs><defs><linearGradient id="grad2_3" x1="0%" y1="0%" x2="56.3%" y2="100%"><stop offset="14.444444444444446%" stop-color="#f1f7ed" stop-opacity="1"></stop><stop offset="85.55555555555554%" stop-color="#96a7a1" stop-opacity="1"></stop></linearGradient></defs><g transform="translate(1920, 0)"><path d="M0 1080C-67.6 1059.9 -135.1 1039.8 -204.1 1025.9C-273 1012 -343.3 1004.3 -398.8 962.7C-454.2 921.1 -494.8 845.6 -516.7 773.3C-538.6 700.9 -541.8 631.6 -610.9 610.9C-680 590.3 -815 618.3 -880.5 588.3C-946 558.4 -942.1 470.5 -964.5 399.5C-986.9 328.5 -1035.6 274.5 -1059.2 210.7C-1082.9 146.9 -1081.4 73.5 -1080 0L0 0Z" fill="#c3cec5"></path><path d="M0 810C-50.7 794.9 -101.3 779.9 -153 769.4C-204.8 759 -257.5 753.2 -299.1 722C-340.6 690.8 -371.1 634.2 -387.5 580C-403.9 525.7 -406.4 473.7 -458.2 458.2C-510 442.7 -611.3 463.7 -660.4 441.3C-709.5 418.8 -706.6 352.9 -723.4 299.6C-740.2 246.4 -776.7 205.8 -794.4 158C-812.2 110.2 -811.1 55.1 -810 0L0 0Z" fill="#6c807e"></path><path d="M0 540C-33.8 530 -67.6 519.9 -102 513C-136.5 506 -171.7 502.1 -199.4 481.3C-227.1 460.5 -247.4 422.8 -258.3 386.6C-269.3 350.4 -270.9 315.8 -305.5 305.5C-340 295.1 -407.5 309.1 -440.3 294.2C-473 279.2 -471.1 235.3 -482.3 199.8C-493.5 164.3 -517.8 137.2 -529.6 105.3C-541.4 73.5 -540.7 36.7 -540 0L0 0Z" fill="#243940"></path><path d="M0 270C-16.9 265 -33.8 260 -51 256.5C-68.3 253 -85.8 251.1 -99.7 240.7C-113.5 230.3 -123.7 211.4 -129.2 193.3C-134.6 175.2 -135.5 157.9 -152.7 152.7C-170 147.6 -203.8 154.6 -220.1 147.1C-236.5 139.6 -235.5 117.6 -241.1 99.9C-246.7 82.1 -258.9 68.6 -264.8 52.7C-270.7 36.7 -270.4 18.4 -270 0L0 0Z" fill="#051923"></path></g><g transform="translate(0, 1080)"><path d="M0 -1080C59 -1016.6 118.1 -953.1 187.9 -944.5C257.7 -935.9 338.2 -982.1 405.3 -978.4C472.3 -974.6 525.8 -920.9 586.7 -878C647.6 -835.1 716 -803.1 740.3 -740.3C764.7 -677.6 745.1 -584.2 794.9 -531.1C844.7 -478 963.9 -465.2 997.8 -413.3C1031.7 -361.4 980.3 -270.3 979.8 -194.9C979.3 -119.5 1029.6 -59.7 1080 0L0 0Z" fill="#c3cec5"></path><path d="M0 -810C44.3 -762.4 88.6 -714.8 140.9 -708.4C193.3 -701.9 253.7 -736.6 303.9 -733.8C354.2 -731 394.3 -690.7 440 -658.5C485.7 -626.4 537 -602.3 555.3 -555.3C573.5 -508.2 558.8 -438.2 596.2 -398.3C633.5 -358.5 722.9 -348.9 748.3 -310C773.8 -271 735.2 -202.7 734.9 -146.2C734.5 -89.6 772.2 -44.8 810 0L0 0Z" fill="#6c807e"></path><path d="M0 -540C29.5 -508.3 59 -476.6 93.9 -472.2C128.8 -467.9 169.1 -491.1 202.6 -489.2C236.1 -487.3 262.9 -460.5 293.3 -439C323.8 -417.6 358 -401.5 370.2 -370.2C382.4 -338.8 372.5 -292.1 397.4 -265.6C422.3 -239 481.9 -232.6 498.9 -206.6C515.9 -180.7 490.2 -135.2 489.9 -97.4C489.6 -59.7 514.8 -29.9 540 0L0 0Z" fill="#243940"></path><path d="M0 -270C14.8 -254.1 29.5 -238.3 47 -236.1C64.4 -234 84.6 -245.5 101.3 -244.6C118.1 -243.7 131.4 -230.2 146.7 -219.5C161.9 -208.8 179 -200.8 185.1 -185.1C191.2 -169.4 186.3 -146.1 198.7 -132.8C211.2 -119.5 241 -116.3 249.4 -103.3C257.9 -90.3 245.1 -67.6 245 -48.7C244.8 -29.9 257.4 -14.9 270 0L0 0Z" fill="#051923"></path></g></svg>